<?xml version="1.0"?>
<svg xmlns="http://www.w3.org/2000/svg" height="512px" viewBox="0 0 64 64" width="512px" class=""><g><g id="Calendar"><path d="m18 6h2v2h-2z" data-original="#000000" class="active-path" data-old_color="#000000" fill="#FFFFFF"/><path d="m22 6h2v2h-2z" data-original="#000000" class="active-path" data-old_color="#000000" fill="#FFFFFF"/><path d="m62 32a23.026 23.026 0 0 0 -22-22.975v-2.025a5.006 5.006 0 0 0 -5-5h-28a5.006 5.006 0 0 0 -5 5v50a5.006 5.006 0 0 0 5 5h28a5.006 5.006 0 0 0 5-5v-2.025a23.026 23.026 0 0 0 22-22.975zm-2 0a21 21 0 1 1 -21-21 21.024 21.024 0 0 1 21 21zm-25-22.645a22.982 22.982 0 0 0 -10.293 40.645h-16.707a1 1 0 0 1 -1-1v-41a1 1 0 0 1 1-1h5a1 1 0 0 1 1 1 3 3 0 0 0 3 3h8a3 3 0 0 0 3-3 1 1 0 0 1 1-1h5a1 1 0 0 1 1 1zm-31-2.355a3 3 0 0 1 3-3h28a3 3 0 0 1 3 3v2.025c-.335.015-.668.039-1 .067v-1.092a3 3 0 0 0 -3-3h-5a3 3 0 0 0 -3 3 1 1 0 0 1 -1 1h-8a1 1 0 0 1 -1-1 3 3 0 0 0 -3-3h-5a3 3 0 0 0 -3 3v41a3 3 0 0 0 3 3h19.664a22.833 22.833 0 0 0 9.624 2.93 2.987 2.987 0 0 1 -2.288 1.07h-28a3 3 0 0 1 -3-3zm31 53h-28a3 3 0 0 1 -3-3v-.026a4.948 4.948 0 0 0 3 1.026h28a4.985 4.985 0 0 0 3-1 3 3 0 0 1 -3 3z" data-original="#000000" class="active-path" data-old_color="#000000" fill="#FFFFFF"/><path d="m38 13h2v2h-2z" data-original="#000000" class="active-path" data-old_color="#000000" fill="#FFFFFF"/><path d="m47 15.411h2v2h-2z" transform="matrix(.5 -.866 .866 .5 9.79 49.778)" data-original="#000000" class="active-path" data-old_color="#000000" fill="#FFFFFF"/><path d="m53.589 22h1.999v1.999h-1.999z" transform="matrix(.866 -.5 .5 .866 -4.185 30.385)" data-original="#000000" class="active-path" data-old_color="#000000" fill="#FFFFFF"/><path d="m56 31h2v2h-2z" data-original="#000000" class="active-path" data-old_color="#000000" fill="#FFFFFF"/><path d="m53.589 40h1.999v1.999h-1.999z" transform="matrix(.5 -.866 .866 .5 -8.217 67.765)" data-original="#000000" class="active-path" data-old_color="#000000" fill="#FFFFFF"/><path d="m47 46.589h2v2h-2z" transform="matrix(.866 -.5 .5 .866 -17.364 30.378)" data-original="#000000" class="active-path" data-old_color="#000000" fill="#FFFFFF"/><path d="m38 49h2v2h-2z" data-original="#000000" class="active-path" data-old_color="#000000" fill="#FFFFFF"/><path d="m29 46.588h2v2h-2z" transform="matrix(.5 -.866 .866 .5 -26.213 49.78)" data-original="#000000" class="active-path" data-old_color="#000000" fill="#FFFFFF"/><path d="m22.412 40h1.999v1.999h-1.999z" transform="matrix(.866 -.5 .5 .866 -17.367 17.205)" data-original="#000000" class="active-path" data-old_color="#000000" fill="#FFFFFF"/><path d="m20 31h2v2h-2z" data-original="#000000" class="active-path" data-old_color="#000000" fill="#FFFFFF"/><path d="m22.412 22h1.999v1.999h-1.999z" transform="matrix(.5 -.866 .866 .5 -8.214 31.77)" data-original="#000000" class="active-path" data-old_color="#000000" fill="#FFFFFF"/><path d="m29 15.411h2v2h-2z" transform="matrix(.866 -.5 .5 .866 -4.186 17.2)" data-original="#000000" class="active-path" data-old_color="#000000" fill="#FFFFFF"/><path d="m57 52h-2v2h-2v2h2v2h2v-2h2v-2h-2z" data-original="#000000" class="active-path" data-old_color="#000000" fill="#FFFFFF"/><path d="m53 60h6v2h-6z" data-original="#000000" class="active-path" data-old_color="#000000" fill="#FFFFFF"/><path d="m18 53h6v2h-6z" data-original="#000000" class="active-path" data-old_color="#000000" fill="#FFFFFF"/><path d="m33 19a3 3 0 0 0 -3 3h-1a3 3 0 0 0 -3 3v16a3 3 0 0 0 3 3h20a3 3 0 0 0 3-3v-16a3 3 0 0 0 -3-3h-1a3 3 0 0 0 -6 0h-6a3 3 0 0 0 -3-3zm-1 3a1 1 0 0 1 2 0v2a1 1 0 0 1 -2 0zm18 19a1 1 0 0 1 -1 1h-20a1 1 0 0 1 -1-1v-11h22zm-6-19a1 1 0 0 1 2 0v2a1 1 0 0 1 -2 0zm-2 2a3 3 0 0 0 6 0h1a1 1 0 0 1 1 1v3h-22v-3a1 1 0 0 1 1-1h1a3 3 0 0 0 6 0z" data-original="#000000" class="active-path" data-old_color="#000000" fill="#FFFFFF"/><path d="m37.447 33.9.553-.282v6.382a1 1 0 0 0 2 0v-8a1 1 0 0 0 -1.447-.895l-2 1a1 1 0 0 0 .894 1.79z" data-original="#000000" class="active-path" data-old_color="#000000" fill="#FFFFFF"/></g></g> </svg>
